<?xml version="1.0" encoding="UTF-8"?>
<svg version="1.1" xmlns="http://www.w3.org/2000/svg" width="512" height="512">
<path d="M0 0 C0.7850592 -0.00979385 1.57011841 -0.01958771 2.37896729 -0.02967834 C20.88808546 -0.21263822 38.50109897 0.54065532 56.69921875 4.23828125 C58.66897608 4.62568092 60.6387398 5.01304898 62.60868835 5.3994751 C68.50264094 6.55705466 74.3880038 7.74930722 80.26953125 8.96875 C96.48645783 12.25917465 111.48701211 12.4986526 126.69921875 5.23828125 C126.21265549 12.08920091 125.11630219 18.45850428 123.19921875 25.05078125 C122.93931152 25.94877441 122.6794043 26.84676758 122.41162109 27.77197266 C114.84227536 52.90255032 102.69019018 75.10864074 84.69921875 94.23828125 C83.80009766 95.25148437 83.80009766 95.25148437 82.8828125 96.28515625 C72.85040443 107.11929023 59.42691904 114.2277439 45.69921875 119.23828125 C44.714375 119.59921875 43.72953125 119.96015625 42.71484375 120.33203125 C12.54567337 129.13816747 -18.07059893 117.29642534 -44.27734375 103.03515625 C-47.9757292 100.9902542 -51.65197749 98.90785059 -55.32421875 96.81640625 C-56.34862061 96.23334717 -57.37302246 95.65028809 -58.4284668 95.04956055 C-60.41836848 93.91226973 -62.4044447 92.76825015 -64.38598633 91.61645508 C-65.30017334 91.09075928 -66.21436035 90.56506348 -67.15625 90.0234375 C-67.95699951 89.5581665 -68.75774902 89.09289551 -69.58276367 88.61352539 C-73.06904583 86.84955994 -76.62519795 85.56316961 -80.30078125 84.23828125 C-80.61318756 84.70689072 -80.92559387 85.17550018 -81.24746704 85.65830994 C-88.57594808 96.65103149 -95.90442912 107.64375305 -103.23291016 118.63647461 C-103.73574524 119.39459442 -104.23858032 120.15271423 -104.75665283 120.93380737 C-105.82768604 122.53222886 -106.91407273 124.12042766 -108.01239014 125.70022583 C-108.55921448 126.49339203 -109.10603882 127.28655823 -109.66943359 128.10375977 C-110.16535004 128.81282974 -110.66126648 129.52189972 -111.17221069 130.25245667 C-112.72079768 132.97733912 -112.77158502 135.17805677 -112.30078125 138.23828125 C-96.43961872 136.85125391 -81.15615326 134.39926574 -65.68164062 130.75170898 C-52.22956842 127.61763683 -39.12281493 125.85996204 -25.30078125 125.92578125 C-24.08326172 125.9299707 -22.86574219 125.93416016 -21.61132812 125.93847656 C-12.81361569 126.04897696 -4.78251816 126.76131383 3.69921875 129.23828125 C4.68792969 129.50511719 5.67664063 129.77195313 6.6953125 130.046875 C40.2132716 140.06220142 67.76193671 166.04934725 84.51171875 196.11328125 C95.50317141 216.52320826 102.48503422 239.11874404 104.69921875 262.23828125 C104.80878906 263.3571875 104.91835938 264.47609375 105.03125 265.62890625 C105.32860205 269.16541329 105.53701962 272.69307161 105.69921875 276.23828125 C105.75335938 277.40101563 105.8075 278.56375 105.86328125 279.76171875 C107.41606158 347.09592036 72.49176782 420.68797105 26.69921875 469.10546875 C25.69959634 470.15010104 24.6995736 471.19435034 23.69921875 472.23828125 C23.1371875 472.83286133 22.57515625 473.42744141 21.99609375 474.04003906 C5.6520166 491.26349863 -17.13994266 510.95212635 -42.07714844 512.39941406 C-60.98526407 512.6622815 -77.49481895 510.95161968 -95.71484375 506.10546875 C-110.28315127 502.58241399 -124.86217589 503.71378066 -139.30078125 507.23828125 C-141.55137179 507.77191089 -143.80283966 508.30171767 -146.05444336 508.83105469 C-147.50584492 509.17493638 -148.95599226 509.52417559 -150.40454102 509.87988281 C-168.42945026 514.26037773 -190.19230358 515.23774727 -207.30078125 507.23828125 C-207.99171875 506.92181641 -208.68265625 506.60535156 -209.39453125 506.27929688 C-225.23883198 498.85228091 -237.76638859 488.26725485 -250.30078125 476.23828125 C-251.12578125 475.45453125 -251.95078125 474.67078125 -252.80078125 473.86328125 C-258.45792552 468.36327987 -263.447273 462.45294966 -268.30078125 456.23828125 C-268.75324219 455.66223145 -269.20570313 455.08618164 -269.671875 454.49267578 C-277.97489781 443.86919437 -285.34034663 432.78106497 -292.30078125 421.23828125 C-292.88158447 420.28163574 -292.88158447 420.28163574 -293.47412109 419.30566406 C-325.93842627 365.32956941 -345.46713645 300.68586471 -330.70898438 238.03442383 C-320.90050951 199.19849116 -299.07955869 165.23474987 -265.30078125 143.23828125 C-264.46933594 142.68269531 -263.63789063 142.12710938 -262.78125 141.5546875 C-231.54420536 121.61063744 -193.91446654 123.99316676 -159.171875 131.546875 C-155.53022214 132.360423 -151.90024537 133.21280275 -148.2734375 134.08984375 C-142.98714985 135.35411823 -137.65572421 136.31468576 -132.30078125 137.23828125 C-137.2724211 120.11351602 -142.87589463 103.48821766 -150.21044922 87.22070312 C-152.37796766 82.36731858 -152.97840545 79.48986881 -152.30078125 74.23828125 C-150.27392173 71.09991812 -148.84780933 69.57957858 -145.140625 68.76171875 C-141.05875926 68.502769 -139.1568479 68.58450891 -135.8046875 71.14453125 C-132.49489473 75.23400999 -130.70428098 79.51421355 -128.73828125 84.36328125 C-128.15348999 85.76646606 -128.15348999 85.76646606 -127.55688477 87.19799805 C-124.95840029 93.47944265 -122.4600593 99.79064678 -120.30078125 106.23828125 C-115.63244947 100.08338572 -111.34389223 93.81437865 -107.30078125 87.23828125 C-104.30814822 82.40169684 -101.29419707 77.59902351 -98.05078125 72.92578125 C-97.468125 72.08402344 -96.88546875 71.24226563 -96.28515625 70.375 C-94.30078125 68.23828125 -94.30078125 68.23828125 -91.390625 66.99609375 C-86.91676402 64.45091367 -85.44847834 60.89402404 -83.11328125 56.42578125 C-68.71186098 30.31331593 -47.25661984 10.42507758 -18.265625 1.9296875 C-12.19840179 0.51480145 -6.21337942 0.06411739 0 0 Z " fill="#F84747" transform="translate(360.30078125,-0.23828125)"/>
<path d="M0 0 C0.7850592 -0.00979385 1.57011841 -0.01958771 2.37896729 -0.02967834 C20.88808546 -0.21263822 38.50109897 0.54065532 56.69921875 4.23828125 C58.66897608 4.62568092 60.6387398 5.01304898 62.60868835 5.3994751 C68.50264094 6.55705466 74.3880038 7.74930722 80.26953125 8.96875 C96.48645783 12.25917465 111.48701211 12.4986526 126.69921875 5.23828125 C126.21265549 12.08920091 125.11630219 18.45850428 123.19921875 25.05078125 C122.93931152 25.94877441 122.6794043 26.84676758 122.41162109 27.77197266 C114.84227536 52.90255032 102.69019018 75.10864074 84.69921875 94.23828125 C83.80009766 95.25148437 83.80009766 95.25148437 82.8828125 96.28515625 C72.85040443 107.11929023 59.42691904 114.2277439 45.69921875 119.23828125 C44.714375 119.59921875 43.72953125 119.96015625 42.71484375 120.33203125 C12.54567337 129.13816747 -18.07059893 117.29642534 -44.27734375 103.03515625 C-47.9757292 100.9902542 -51.65197749 98.90785059 -55.32421875 96.81640625 C-56.34862061 96.23334717 -57.37302246 95.65028809 -58.4284668 95.04956055 C-60.41836848 93.91226973 -62.4044447 92.76825015 -64.38598633 91.61645508 C-65.30017334 91.09075928 -66.21436035 90.56506348 -67.15625 90.0234375 C-67.95699951 89.5581665 -68.75774902 89.09289551 -69.58276367 88.61352539 C-73.06904583 86.84955994 -76.62519795 85.56316961 -80.30078125 84.23828125 C-80.61318756 84.70689072 -80.92559387 85.17550018 -81.24746704 85.65830994 C-88.57594808 96.65103149 -95.90442912 107.64375305 -103.23291016 118.63647461 C-103.73530716 119.39540512 -104.23770416 120.15433563 -104.75532532 120.93626404 C-105.82541428 122.53020351 -106.91663985 124.11007925 -108.02433777 125.67811584 C-108.84917412 126.8593528 -108.84917412 126.8593528 -109.69067383 128.06445312 C-110.44046257 129.11711365 -110.44046257 129.11711365 -111.20539856 130.19104004 C-113.15232951 133.82980237 -112.31200457 136.94651382 -111.36328125 140.80078125 C-111.03062073 142.45873183 -110.70273064 144.1176447 -110.37890625 145.77734375 C-110.19908203 146.65422852 -110.01925781 147.53111328 -109.83398438 148.43457031 C-108.87353684 153.48483566 -108.25065241 158.57641336 -107.61328125 163.67578125 C-107.48252197 164.64523682 -107.3517627 165.61469238 -107.21704102 166.61352539 C-106.33828501 173.51619197 -106.15614104 180.28407165 -106.30078125 187.23828125 C-122.90343126 187.8008629 -137.35047063 187.60088976 -152.25 179.2890625 C-154.38243066 178.19644565 -155.90895017 177.45821974 -158.30078125 177.23828125 C-167.04869403 181.02076774 -174.080933 188.26932081 -180.82861328 194.82177734 C-182.09773017 196.04290772 -183.39773754 197.23178475 -184.703125 198.4140625 C-212.85809418 224.63433217 -227.42173066 267.63156103 -229.30078125 305.23828125 C-230.86837292 356.01181485 -225.53425037 400.8734545 -189.73242188 439.80224609 C-158.69262028 472.30036484 -113.57043838 483.26232529 -70.08154297 484.39501953 C-64.46719788 484.50879382 -58.85365977 484.54171945 -53.23828125 484.55078125 C-52.35092285 484.55436646 -51.46356445 484.55795166 -50.54931641 484.56164551 C-33.30376855 484.5991914 -16.29682983 483.13285587 0.76171875 480.61328125 C2.58558199 480.3478064 4.4097896 480.08468396 6.234375 479.82421875 C7.00144775 479.71126465 7.76852051 479.59831055 8.55883789 479.48193359 C10.69921875 479.23828125 10.69921875 479.23828125 14.69921875 479.23828125 C8.84985863 492.7185325 -12.50341142 502.71813431 -25.30078125 508.23828125 C-26.30367188 508.67269531 -27.3065625 509.10710937 -28.33984375 509.5546875 C-49.6908183 517.1573298 -74.51884574 511.74316719 -95.71484375 506.10546875 C-110.28315127 502.58241399 -124.86217589 503.71378066 -139.30078125 507.23828125 C-141.55137179 507.77191089 -143.80283966 508.30171767 -146.05444336 508.83105469 C-147.50584492 509.17493638 -148.95599226 509.52417559 -150.40454102 509.87988281 C-168.42945026 514.26037773 -190.19230358 515.23774727 -207.30078125 507.23828125 C-207.99171875 506.92181641 -208.68265625 506.60535156 -209.39453125 506.27929688 C-225.23883198 498.85228091 -237.76638859 488.26725485 -250.30078125 476.23828125 C-251.12578125 475.45453125 -251.95078125 474.67078125 -252.80078125 473.86328125 C-258.45792552 468.36327987 -263.447273 462.45294966 -268.30078125 456.23828125 C-268.75324219 455.66223145 -269.20570313 455.08618164 -269.671875 454.49267578 C-277.97489781 443.86919437 -285.34034663 432.78106497 -292.30078125 421.23828125 C-292.88158447 420.28163574 -292.88158447 420.28163574 -293.47412109 419.30566406 C-325.93842627 365.32956941 -345.46713645 300.68586471 -330.70898438 238.03442383 C-320.90050951 199.19849116 -299.07955869 165.23474987 -265.30078125 143.23828125 C-264.46933594 142.68269531 -263.63789063 142.12710938 -262.78125 141.5546875 C-231.54420536 121.61063744 -193.91446654 123.99316676 -159.171875 131.546875 C-155.53022214 132.360423 -151.90024537 133.21280275 -148.2734375 134.08984375 C-142.98714985 135.35411823 -137.65572421 136.31468576 -132.30078125 137.23828125 C-137.2724211 120.11351602 -142.87589463 103.48821766 -150.21044922 87.22070312 C-152.37796766 82.36731858 -152.97840545 79.48986881 -152.30078125 74.23828125 C-150.27392173 71.09991812 -148.84780933 69.57957858 -145.140625 68.76171875 C-141.05875926 68.502769 -139.1568479 68.58450891 -135.8046875 71.14453125 C-132.49489473 75.23400999 -130.70428098 79.51421355 -128.73828125 84.36328125 C-128.15348999 85.76646606 -128.15348999 85.76646606 -127.55688477 87.19799805 C-124.95840029 93.47944265 -122.4600593 99.79064678 -120.30078125 106.23828125 C-115.63244947 100.08338572 -111.34389223 93.81437865 -107.30078125 87.23828125 C-104.30814822 82.40169684 -101.29419707 77.59902351 -98.05078125 72.92578125 C-97.468125 72.08402344 -96.88546875 71.24226563 -96.28515625 70.375 C-94.30078125 68.23828125 -94.30078125 68.23828125 -91.390625 66.99609375 C-86.91676402 64.45091367 -85.44847834 60.89402404 -83.11328125 56.42578125 C-68.71186098 30.31331593 -47.25661984 10.42507758 -18.265625 1.9296875 C-12.19840179 0.51480145 -6.21337942 0.06411739 0 0 Z " fill="#E23D3D" transform="translate(360.30078125,-0.23828125)"/>
<path d="M0 0 C0.7850592 -0.00979385 1.57011841 -0.01958771 2.37896729 -0.02967834 C20.88808546 -0.21263822 38.50109897 0.54065532 56.69921875 4.23828125 C58.66897608 4.62568092 60.6387398 5.01304898 62.60868835 5.3994751 C68.50264094 6.55705466 74.3880038 7.74930722 80.26953125 8.96875 C96.48645783 12.25917465 111.48701211 12.4986526 126.69921875 5.23828125 C126.21265549 12.08920091 125.11630219 18.45850428 123.19921875 25.05078125 C122.93931152 25.94877441 122.6794043 26.84676758 122.41162109 27.77197266 C114.84227536 52.90255032 102.69019018 75.10864074 84.69921875 94.23828125 C84.09980469 94.91375 83.50039063 95.58921875 82.8828125 96.28515625 C72.85040443 107.11929023 59.42691904 114.2277439 45.69921875 119.23828125 C44.714375 119.59921875 43.72953125 119.96015625 42.71484375 120.33203125 C12.55381704 129.1357904 -18.08213752 117.30523579 -44.27734375 103.03125 C-51.00921513 99.30772597 -57.70967448 95.52653283 -64.38598633 91.7043457 C-69.62021353 88.71289745 -74.87911389 85.87584916 -80.30078125 83.23828125 C-80.17058594 82.57441406 -80.04039062 81.91054687 -79.90625 81.2265625 C-78.8903845 75.34854794 -78.8903845 75.34854794 -81.48828125 70.17578125 C-83.921161 68.49979743 -85.40524408 67.5600076 -88.30078125 67.23828125 C-86.85316611 62.14802586 -84.61512397 58.09601492 -81.80078125 53.67578125 C-81.35790771 52.97686768 -80.91503418 52.2779541 -80.45874023 51.55786133 C-64.87293921 27.31236325 -44.04323113 7.941066 -15.30078125 1.23828125 C-10.18823224 0.38526999 -5.17395082 0.05339127 0 0 Z " fill="#C6F391" transform="translate(360.30078125,-0.23828125)"/>
<path d="M0 0 C0.7850592 -0.00979385 1.57011841 -0.01958771 2.37896729 -0.02967834 C20.88808546 -0.21263822 38.50109897 0.54065532 56.69921875 4.23828125 C58.66897608 4.62568092 60.6387398 5.01304898 62.60868835 5.3994751 C68.50264094 6.55705466 74.3880038 7.74930722 80.26953125 8.96875 C96.32976495 12.22738156 110.18878046 11.83927285 125.69921875 6.23828125 C105.08463958 30.97577626 74.61793154 50.16150924 42.17578125 53.91796875 C37.53641412 54.30620938 32.8918732 54.39962949 28.23925781 54.52172852 C14.07478437 54.89463483 0.58323253 56.42562598 -13.30078125 59.23828125 C-14.11337402 59.40231445 -14.9259668 59.56634766 -15.76318359 59.73535156 C-20.2216134 60.6526317 -24.65674883 61.64921389 -29.08349609 62.70849609 C-30.59032122 63.06852808 -32.09852747 63.4228181 -33.60791016 63.77197266 C-45.35408398 66.49119616 -56.80104283 69.87215189 -68.25219727 73.64746094 C-69.78058228 74.15067871 -69.78058228 74.15067871 -71.33984375 74.6640625 C-72.24943848 74.96739502 -73.1590332 75.27072754 -74.09619141 75.58325195 C-76.30078125 76.23828125 -76.30078125 76.23828125 -78.30078125 76.23828125 C-78.65140625 75.31015625 -79.00203125 74.38203125 -79.36328125 73.42578125 C-81.89997144 69.25251675 -83.77179865 68.77642629 -88.30078125 67.23828125 C-86.85316611 62.14802586 -84.61512397 58.09601492 -81.80078125 53.67578125 C-81.35790771 52.97686768 -80.91503418 52.2779541 -80.45874023 51.55786133 C-64.87293921 27.31236325 -44.04323113 7.941066 -15.30078125 1.23828125 C-10.18823224 0.38526999 -5.17395082 0.05339127 0 0 Z " fill="#A3E261" transform="translate(360.30078125,-0.23828125)"/>
<path d="M0 0 C11.43912548 5.4335846 17.76014087 15.21703449 22.00390625 26.91015625 C22.26042969 27.69132812 22.51695312 28.4725 22.78125 29.27734375 C23.11962891 30.26347656 23.11962891 30.26347656 23.46484375 31.26953125 C27.58587239 45.87786727 25.22637097 62.75994338 17.90625 75.83984375 C14.07802339 81.70722625 9.43774466 85.79747319 2.78125 88.27734375 C-4.78020784 89.43197977 -9.90491898 87.20197495 -16.0625 83.02734375 C-25.27811186 75.9135381 -30.39385923 63.56395465 -32.83984375 52.45703125 C-34.68319972 36.98804401 -34.07221712 21.04055955 -24.21875 8.27734375 C-17.27072611 1.06157327 -10.22184506 -3.32929813 0 0 Z " fill="#FB8080" transform="translate(398.21875,203.72265625)"/>
<path d="M0 0 C2.5625 2.125 2.5625 2.125 4 5 C4.20664084 17.39845018 -6.31504935 28.65256233 -12.9375 38.5 C-13.92415362 39.9724382 -14.91048405 41.445093 -15.89648438 42.91796875 C-16.37630264 43.63367538 -16.85612091 44.34938202 -17.35047913 45.08677673 C-18.29389337 46.49639465 -19.23488606 47.90763657 -20.17332458 49.3205719 C-22.07753606 52.18046185 -23.99190985 54.98926649 -26.06079102 57.73413086 C-28.7129867 61.28559683 -30.42822091 63.66150565 -30.03515625 68.19140625 C-29.74550977 69.65570225 -29.4192692 71.11309543 -29.0625 72.5625 C-28.72983948 74.22045058 -28.40194939 75.87936345 -28.078125 77.5390625 C-27.89830078 78.41594727 -27.71847656 79.29283203 -27.53320312 80.19628906 C-26.57275559 85.24655441 -25.94987116 90.33813211 -25.3125 95.4375 C-25.11636108 96.89168335 -25.11636108 96.89168335 -24.91625977 98.37524414 C-24.0353442 105.29487419 -23.89157645 112.02475157 -24 119 C-29.94 119 -35.88 119 -42 119 C-42.32613281 116.39609375 -42.65226562 113.7921875 -42.98828125 111.109375 C-43.31426781 108.54730066 -43.64273705 105.98555579 -43.97143555 103.42382812 C-44.1960295 101.66308869 -44.41810015 99.90202527 -44.63745117 98.140625 C-45.87106857 88.24920529 -47.21407967 78.59755953 -50 69 C-50.4168103 67.51693359 -50.4168103 67.51693359 -50.84204102 66.00390625 C-55.45777521 49.88004979 -61.01499793 34.2743041 -67.90966797 18.98242188 C-70.07718641 14.12903733 -70.6776242 11.25158756 -70 6 C-67.97314048 2.86163687 -66.54702808 1.34129733 -62.83984375 0.5234375 C-58.75797801 0.26448775 -56.85606665 0.34622766 -53.50390625 2.90625 C-50.19411348 6.99572874 -48.40349973 11.2759323 -46.4375 16.125 C-46.04763916 17.06045654 -45.65777832 17.99591309 -45.25610352 18.9597168 C-42.65761904 25.2411614 -40.15927805 31.55236553 -38 38 C-33.33174718 31.84520857 -29.04229204 25.5765222 -25 19 C-10.5012173 -4.48825034 -10.5012173 -4.48825034 0 0 Z " fill="#B25619" transform="translate(278,68)"/>
<path d="M0 0 C-0.36351562 0.43828125 -0.72703125 0.8765625 -1.1015625 1.328125 C-8.40823411 10.54577226 -11.81478735 18.14787353 -13 30 C-2.77 30 7.46 30 18 30 C16.86041323 36.83752061 15.59261096 38.2142402 10.34765625 42.28125 C1.58654954 48.35660518 -8.58177632 50.16196152 -19 51 C-19.07516846 50.175 -19.15033691 49.35 -19.2277832 48.5 C-21.03642296 28.00747243 -21.03642296 28.00747243 -24.44921875 7.73828125 C-25 5 -25 5 -25 2 C-21.95872183 1.66274935 -18.91705809 1.33007668 -15.875 1 C-15.0190625 0.90460938 -14.163125 0.80921875 -13.28125 0.7109375 C-8.82977526 0.23154791 -4.48558075 -0.11765458 0 0 Z " fill="#E23D3D" transform="translate(273,136)"/>
</svg>
