<?xml version="1.0" encoding="UTF-8"?>
<svg version="1.1" xmlns="http://www.w3.org/2000/svg" width="512" height="512">
<path d="M0 0 C19.14 0 38.28 0 58 0 C65.35791016 25.75268555 65.35791016 25.75268555 66.08149719 28.2870636 C66.57989544 30.03017308 67.07968867 31.77288401 67.58049011 33.51530457 C68.95483699 38.30394979 70.3046522 43.09739625 71.61206055 47.90478516 C71.87469696 48.8577095 72.13733337 49.81063385 72.40792847 50.79243469 C72.9060754 52.60219431 73.39648207 54.41410913 73.87771606 56.22843933 C75.46319334 61.94618006 77.52247939 65.8117561 81.60546875 70.19140625 C109.0335145 102.36231146 123.84499896 149.17073532 131 190 C131.16371094 190.87543457 131.32742188 191.75086914 131.49609375 192.65283203 C143.7238242 259.94324535 127.51742379 335.31446157 89.48486328 391.85595703 C85.59954011 397.46610306 81.36566751 402.75996313 77 408 C76.5472168 408.55429687 76.09443359 409.10859375 75.62792969 409.6796875 C64.17731101 423.68833727 51.47486507 437.09757605 37 448 C36.31711914 448.52158691 35.63423828 449.04317383 34.93066406 449.58056641 C25.28621243 456.93174533 15.5736285 463.91903495 4.99902344 469.86962891 C2.83328807 471.0942692 0.68710468 472.35007779 -1.4609375 473.60546875 C-43.01839804 497.545393 -93.04656797 511.99045377 -141.16796875 512.203125 C-142.20528641 512.20882507 -143.24260406 512.21452515 -144.31135559 512.22039795 C-146.49882001 512.2297852 -148.68629817 512.23635672 -150.8737793 512.24023438 C-154.13422122 512.24984299 -157.39400485 512.28088744 -160.65429688 512.3125 C-175.31633429 512.38648556 -189.51264277 511.23835155 -204 509 C-205.25546631 508.80647949 -206.51093262 508.61295898 -207.80444336 508.41357422 C-210.67518095 507.93198437 -213.52374938 507.3977092 -216.375 506.8125 C-217.39134521 506.60455811 -218.40769043 506.39661621 -219.45483398 506.18237305 C-257.53360177 498.03616899 -296.45831407 481.92664215 -326 456 C-326.66386719 455.41863281 -327.32773437 454.83726562 -328.01171875 454.23828125 C-334.20492734 448.46054997 -337.66728264 441.94167092 -338.23828125 433.4609375 C-338.56604201 421.40170375 -336.48748732 412.09373641 -328 403 C-315.82215292 391.85802788 -301.36972683 392.87353851 -285.76885986 393.09732056 C-218.31651799 393.92021989 -143.54166478 380.51447696 -88 340 C-87.39381836 339.56075195 -86.78763672 339.12150391 -86.16308594 338.66894531 C-60.20736729 319.79322082 -38.39353209 298.77061564 -22 271 C-21.47841309 270.13181641 -21.47841309 270.13181641 -20.94628906 269.24609375 C5.30303305 225.09601441 11.69713657 169.14414025 11.4375 118.8125 C11.43412628 117.52518982 11.43075256 116.23787964 11.42727661 114.91156006 C11.35698501 96.30081582 10.54388447 78.28697202 7.72412109 59.88769531 C6.78642833 53.68449706 5.98765665 47.46286826 5.17578125 41.2421875 C5.01762436 40.03043854 4.85946747 38.81868958 4.69651794 37.57022095 C4.37514552 35.10710922 4.05387197 32.64398459 3.73269653 30.18084717 C3.25642372 26.54898467 2.7731361 22.91813406 2.28686523 19.28759766 C2.13585861 18.15895294 1.98485199 17.03030823 1.82926941 15.86746216 C1.54215464 13.72465332 1.25411506 11.58196815 0.96504211 9.43942261 C0.83768173 8.48681549 0.71032135 7.53420837 0.57910156 6.55273438 C0.46681213 5.71818726 0.35452271 4.88364014 0.23883057 4.02380371 C0 2 0 2 0 0 Z " fill="#FED400" transform="translate(358,0)"/>
<path d="M0 0 C1.02569272 4.73746232 2.05102858 9.47500171 3.07601929 14.21261597 C3.44220236 15.90511093 3.8084337 17.59759546 4.17471313 19.29006958 C6.77451095 31.30439762 9.35173184 43.32327363 11.91381836 55.34570312 C13.44425331 62.49508823 15.04457631 69.62570236 16.6875 76.75 C18.41721847 84.25445213 19.95309099 91.76464144 21.31640625 99.34375 C21.98471148 102.91822825 22.75976508 106.453589 23.5625 110 C26.45145668 123.42444133 27.37985879 136.62796119 27.3125 150.3125 C27.30976578 151.47629684 27.30976578 151.47629684 27.30697632 152.66360474 C27.08085526 210.33184053 7.40514085 266.02558955 -31.91015625 308.7265625 C-33.85871415 310.84630212 -35.74757333 313.00483469 -37.625 315.1875 C-44.12947923 322.6127046 -51.25524036 328.88664937 -59 335 C-59.63260742 335.50370117 -60.26521484 336.00740234 -60.91699219 336.52636719 C-70.53822892 344.1617586 -80.25756578 351.04302211 -91 357 C-91.71349609 357.4031543 -92.42699219 357.80630859 -93.16210938 358.22167969 C-104.55787057 364.62871742 -116.1678444 369.71596255 -128.48217773 374.09326172 C-130.19485168 374.71004355 -131.900027 375.34796646 -133.59790039 376.00439453 C-178.82612757 393.2870259 -231.34983354 390.03939666 -277 377 C-278.74085918 376.50902154 -280.48174416 376.01813454 -282.22265625 375.52734375 C-285.67240437 374.54968102 -289.11833952 373.55965481 -292.5625 372.5625 C-297.4326053 371.15573938 -302.31517442 369.79678056 -307.20019531 368.44287109 C-317.33470084 365.63257988 -327.40643532 362.67432616 -337.4519043 359.56152344 C-345.27702186 357.16253293 -353.16790835 355.0902372 -361.09838867 353.0715332 C-367.84946184 351.3402315 -374.44962917 349.39475923 -381 347 C-377.37425755 336.90994042 -371.59721659 329.6944659 -361.8828125 324.97265625 C-352.18048413 321.69910643 -342.8974364 321.84966772 -332.78213501 322.0218811 C-264.26964751 323.06921277 -188.51181006 310.22214261 -132 269 C-131.39381836 268.56075195 -130.78763672 268.12150391 -130.16308594 267.66894531 C-104.20736729 248.79322082 -82.39353209 227.77061564 -66 200 C-65.47841309 199.13181641 -65.47841309 199.13181641 -64.94628906 198.24609375 C-37.5212481 152.11851265 -32.33921925 95.04564266 -32.79400635 42.55938721 C-32.82543468 38.52857442 -32.83855028 34.49769844 -32.85351562 30.46679688 C-32.88510202 22.64436839 -32.9358694 14.82223691 -33 7 C-29.10584752 5.9954514 -25.20976552 4.99880242 -21.31176758 4.00927734 C-19.98732714 3.67190004 -18.6634234 3.33240824 -17.34008789 2.99072266 C-15.43259508 2.49860529 -13.52295462 2.01483654 -11.61328125 1.53125 C-9.89298706 1.09135742 -9.89298706 1.09135742 -8.13793945 0.64257812 C-5.31013042 0.06350761 -2.87218714 -0.13173012 0 0 Z " fill="#FEE36F" transform="translate(402,71)"/>
<path d="M0 0 C19.14 0 38.28 0 58 0 C60.8153125 9.838125 60.8153125 9.838125 63.6875 19.875 C64.26846436 21.90382324 64.84942871 23.93264648 65.44799805 26.02294922 C66.45582368 29.5437031 67.45832934 33.06593027 68.45849609 36.58886719 C69.47284174 40.16164022 70.50317995 43.7292135 71.54541016 47.29394531 C72.01615117 48.92767657 72.48670143 50.56146281 72.95703125 52.1953125 C73.17953049 52.94328094 73.40202972 53.69124939 73.63127136 54.46188354 C75.11327524 59.66017427 75.11327524 59.66017427 74 63 C71.55419922 63.91967773 71.55419922 63.91967773 68.3046875 64.68359375 C67.12100586 64.96936279 65.93732422 65.25513184 64.71777344 65.54956055 C63.4496582 65.84258057 62.18154297 66.13560059 60.875 66.4375 C58.29407776 67.05648719 55.71334651 67.67627129 53.1328125 68.296875 C51.89176758 68.59142578 50.65072266 68.88597656 49.37207031 69.18945312 C45.47802992 70.12546631 41.61428185 71.13588118 37.75 72.1875 C32.63096581 73.56570151 27.50941638 74.93030363 22.375 76.25 C21.37871582 76.5133313 21.37871582 76.5133313 20.36230469 76.78198242 C16.80630186 77.68650754 13.65546541 78.07346884 10 78 C8.69464433 68.12557196 7.39067336 58.25096215 6.08848572 48.3761158 C5.48382955 43.79118036 4.87869076 39.20630968 4.27246094 34.62158203 C3.68778597 30.19973199 3.10436316 25.7777184 2.52182007 21.35558701 C2.29898976 19.66578114 2.075703 17.97603541 1.85195923 16.28635025 C1.53943211 13.92559394 1.22850675 11.56463194 0.91796875 9.20361328 C0.82446136 8.50014771 0.73095398 7.79668213 0.63461304 7.07189941 C0 2.22810432 0 2.22810432 0 0 Z " fill="#A14603" transform="translate(358,0)"/>
<path d="M0 0 C9.57 0 19.14 0 29 0 C30.61808113 5.65167092 32.23571279 11.30346701 33.85229492 16.95556641 C34.39989904 18.86969971 34.94774216 20.78376467 35.49584961 22.69775391 C36.82138938 27.3268158 38.14357395 31.95677721 39.45849609 36.58886719 C40.47284174 40.16164022 41.50317995 43.7292135 42.54541016 47.29394531 C43.01615117 48.92767657 43.48670143 50.56146281 43.95703125 52.1953125 C44.17953049 52.94328094 44.40202972 53.69124939 44.63127136 54.46188354 C46.11327524 59.66017427 46.11327524 59.66017427 45 63 C42.79443359 63.89135742 42.79443359 63.89135742 39.8984375 64.60546875 C38.32642578 64.99702148 38.32642578 64.99702148 36.72265625 65.39648438 C35.61792969 65.65751953 34.51320313 65.91855469 33.375 66.1875 C32.29347656 66.46013672 31.21195312 66.73277344 30.09765625 67.01367188 C24.571324 68.35982973 19.71875405 69.13777444 14 69 C11.49629799 57.79550316 9.00380404 46.5885572 6.52575684 35.37835693 C6.18589138 33.84091354 5.84581785 32.30351612 5.50549316 30.76617432 C4.49510181 26.20012795 3.49477922 21.63197938 2.5 17.0625 C2.24524902 15.91040039 1.99049805 14.75830078 1.72802734 13.57128906 C1.49809082 12.50749023 1.2681543 11.44369141 1.03125 10.34765625 C0.83080078 9.42992432 0.63035156 8.51219238 0.42382812 7.56665039 C0 5 0 5 0 0 Z " fill="#702E01" transform="translate(387,0)"/>
</svg>
