<?xml version="1.0" encoding="UTF-8"?>
<svg version="1.1" xmlns="http://www.w3.org/2000/svg" width="512" height="512">
<path d="M0 0 C0 5.94 0 11.88 0 18 C-2.5575 18.391875 -5.115 18.78375 -7.75 19.1875 C-23.39084843 21.84140555 -36.66797288 28.73536349 -47 41 C-48.25376832 42.98829925 -49.12371868 44.8092967 -50 47 C-48.824375 47.2784375 -48.824375 47.2784375 -47.625 47.5625 C-34.45666513 52.7844259 -26.15021446 63.17112652 -20.41015625 75.73046875 C-15.95504642 86.05990621 -15.29007526 97.96278504 -18.6875 108.75 C-19.3632739 111.36788946 -19.3632739 111.36788946 -19 114 C-16.77621877 117.23756385 -14.13027492 119.8729036 -11.3359375 122.60546875 C14.35460445 147.94108551 28.22744475 187.12338376 34 222 C34.17005428 223.00006451 34.34010857 224.00012901 34.51531601 225.0304985 C35.08108776 229.66409864 35.14492043 234.17878751 35.14044189 238.84112549 C35.14489858 240.30240863 35.14489858 240.30240863 35.1494453 241.79321265 C35.15809799 245.04867399 35.15963763 248.3040984 35.16113281 251.55957031 C35.16576337 253.89740578 35.17078835 256.2352405 35.17617798 258.57307434 C35.18928 264.91823709 35.1957425 271.26338927 35.20018864 277.60856342 C35.20312255 281.57481592 35.20722794 285.54106554 35.21169281 289.50731659 C35.22387948 300.50160188 35.23418054 311.49588525 35.2375679 322.49017715 C35.23778747 323.19292321 35.23800703 323.89566927 35.23823325 324.61971067 C35.23845153 325.32407649 35.23866981 326.0284423 35.2388947 326.75415254 C35.23933816 328.18131654 35.23978472 329.60848053 35.24023438 331.03564453 C35.2404558 331.74355754 35.24067723 332.45147054 35.24090537 333.18083546 C35.24485222 344.64783979 35.26230546 356.11478054 35.2855939 367.58176032 C35.30934337 379.37145694 35.32177136 391.1611217 35.32293582 402.95084262 C35.32385047 409.56362663 35.32987132 416.17633737 35.34775543 422.78910065 C35.36425515 429.01075616 35.36638227 435.23225456 35.35761642 441.45392418 C35.35684711 443.7326951 35.36117477 446.01147453 35.37107468 448.29022408 C35.38383234 451.41064819 35.37789645 454.53051897 35.36749268 457.65093994 C35.37957728 458.99062076 35.37957728 458.99062076 35.39190602 460.35736585 C35.30591123 471.45103661 31.76768298 480.64892982 26 490 C25.58234375 490.71027344 25.1646875 491.42054688 24.734375 492.15234375 C18.61604791 501.45883526 7.43556223 507.77131776 -3 511 C-3.54478209 511.17599729 -4.08956419 511.35199459 -4.65085483 511.53332514 C-7.9968927 512.19804002 -11.31066162 512.13525985 -14.70741653 512.12304783 C-15.88438256 512.1247786 -15.88438256 512.1247786 -17.08512568 512.12654433 C-19.73021309 512.12920388 -22.37524037 512.12469422 -25.02032471 512.12025452 C-26.92943484 512.12069035 -28.83854492 512.12156549 -30.74765468 512.12284368 C-36.00615198 512.1250862 -41.26462902 512.12107065 -46.52312374 512.11606562 C-52.18909137 512.11175784 -57.85505781 512.11320778 -63.52102661 512.1139679 C-73.3418327 512.11449292 -83.16263216 512.11134834 -92.98343658 512.10573006 C-107.18277249 512.09761218 -121.38210518 512.09499954 -135.58144316 512.09374207 C-158.61744847 512.091552 -181.6534498 512.08490171 -204.68945312 512.07543945 C-227.07031231 512.0662569 -249.45117056 512.05917237 -271.83203125 512.05493164 C-272.52175898 512.05480011 -273.2114867 512.05466859 -273.92211527 512.05453308 C-280.84856755 512.05321457 -287.77501983 512.05193875 -294.70147213 512.05069422 C-352.80098379 512.04025096 -410.90049183 512.02260269 -469 512 C-469.66483102 476.74764637 -470.17529404 441.49656774 -470.48089455 406.23925719 C-470.51716191 402.07022047 -470.55469756 397.90119607 -470.59301758 393.73217773 C-470.60062458 392.90225549 -470.60823158 392.07233325 -470.6160691 391.21726184 C-470.7420198 377.80554401 -470.97051768 364.39745728 -471.23743109 350.9878887 C-471.50933289 337.21205263 -471.669845 323.43810775 -471.72856635 309.6596989 C-471.76468335 301.92538009 -471.85172339 294.19867696 -472.06617165 286.46707344 C-473.37051992 238.03668483 -473.37051992 238.03668483 -466.23775864 228.83942795 C-460.02854241 222.4224039 -452.23468242 219.63778841 -443.79772282 217.26542664 C-437.31084312 215.31262107 -431.80119525 211.31345472 -426.1875 207.625 C-424.89483683 206.82832414 -423.59908286 206.03659156 -422.29760742 205.25439453 C-420.77937378 204.32796143 -420.77937378 204.32796143 -419.23046875 203.3828125 C-411.524829 198.69135407 -403.76382881 194.0942856 -396 189.5 C-385.96290768 183.55968925 -375.9582 177.5716568 -366 171.5 C-355.36671155 165.01673213 -344.6763327 158.63522658 -333.95898438 152.29199219 C-324.60315969 146.75294929 -315.28309988 141.16003861 -306 135.5 C-295.36671155 129.01673213 -284.6763327 122.63522658 -273.95898438 116.29199219 C-264.60315969 110.75294929 -255.28309988 105.16003861 -246 99.5 C-235.37570873 93.02221783 -224.69450265 86.64589546 -213.98617554 80.30810547 C-200.80629167 72.50517448 -187.70443744 64.57798762 -174.63012695 56.59960938 C-173.76218506 56.07173828 -172.89424316 55.54386719 -172 55 C-171.15373047 54.44497803 -170.30746094 53.88995605 -169.43554688 53.31811523 C-165.45108515 51.16172902 -161.63450932 51.514278 -157.1875 51.5625 C-155.7499939 51.57059692 -155.7499939 51.57059692 -154.28344727 51.57885742 C-141.80912229 51.83417691 -128.85083658 53.57088043 -116.87890625 57.1796875 C-112.50443831 58.48732899 -112.50443831 58.48732899 -108 59 C-105.58876956 57.67771234 -104.07797305 56.1418171 -102.21875 54.12109375 C-94.75789283 46.98861938 -83.13660215 42.97658468 -72.9375 42.875 C-71.968125 42.91625 -70.99875 42.9575 -70 43 C-69.72414063 42.26265625 -69.44828125 41.5253125 -69.1640625 40.765625 C-62.1238105 24.03912025 -46.17313215 11.65946833 -29.88574219 4.73144531 C-20.10335139 0.93703272 -10.49782164 -0.52489108 0 0 Z " fill="#EBD2B6" transform="translate(473,0)"/>
<path d="M0 0 C0 5.94 0 11.88 0 18 C-2.5575 18.391875 -5.115 18.78375 -7.75 19.1875 C-23.39084843 21.84140555 -36.66797288 28.73536349 -47 41 C-48.25376832 42.98829925 -49.12371868 44.8092967 -50 47 C-48.824375 47.2784375 -48.824375 47.2784375 -47.625 47.5625 C-34.45666513 52.7844259 -26.15021446 63.17112652 -20.41015625 75.73046875 C-15.95504642 86.05990621 -15.29007526 97.96278504 -18.6875 108.75 C-19.3632739 111.36788946 -19.3632739 111.36788946 -19 114 C-16.77621877 117.23756385 -14.13027492 119.8729036 -11.3359375 122.60546875 C11.94498081 145.5647518 25.87897408 180.8751672 32.3125 212.4375 C32.47194092 213.21714111 32.63138184 213.99678223 32.7956543 214.80004883 C34.0256068 221.2496674 34.44663052 227.35956623 35 234 C-131.32 234 -297.64 234 -469 234 C-465.34181426 231.07345141 -462.14994529 228.79479822 -458.15234375 226.48828125 C-457.59242737 226.16318069 -457.03251099 225.83808014 -456.45562744 225.50312805 C-455.24905903 224.80272834 -454.04151812 224.10400173 -452.83309937 223.40679932 C-449.55478033 221.51427796 -446.28503507 219.60707813 -443.015625 217.69921875 C-442.34375656 217.30730347 -441.67188812 216.91538818 -440.97966003 216.51159668 C-434.33457766 212.62668855 -427.75684695 208.63653002 -421.1875 204.625 C-411.16819007 198.50909552 -401.10217929 192.47801652 -391 186.5 C-380.96290768 180.55968925 -370.9582 174.5716568 -361 168.5 C-350.36671155 162.01673213 -339.6763327 155.63522658 -328.95898438 149.29199219 C-319.60315969 143.75294929 -310.28309988 138.16003861 -301 132.5 C-290.36671155 126.01673213 -279.6763327 119.63522658 -268.95898438 113.29199219 C-259.60315969 107.75294929 -250.28309988 102.16003861 -241 96.5 C-233.72994823 92.06734558 -226.44786156 87.65750751 -219.125 83.3125 C-218.45842377 82.91670242 -217.79184753 82.52090485 -217.10507202 82.1131134 C-213.72394123 80.10766594 -210.33797474 78.11106239 -206.94384766 76.12768555 C-200.34529447 72.25951829 -193.86451556 68.29863007 -187.5234375 64.01953125 C-173.240072 54.4701848 -162.4607035 49.18010709 -145 52 C-142.9206241 52.28422886 -140.8411952 52.56807025 -138.76171875 52.8515625 C-131.40272259 53.93356809 -124.01303125 55.02918378 -116.87890625 57.1796875 C-112.50443831 58.48732899 -112.50443831 58.48732899 -108 59 C-105.58876956 57.67771234 -104.07797305 56.1418171 -102.21875 54.12109375 C-94.75789283 46.98861938 -83.13660215 42.97658468 -72.9375 42.875 C-71.968125 42.91625 -70.99875 42.9575 -70 43 C-69.72414063 42.26265625 -69.44828125 41.5253125 -69.1640625 40.765625 C-62.1238105 24.03912025 -46.17313215 11.65946833 -29.88574219 4.73144531 C-20.10335139 0.93703272 -10.49782164 -0.52489108 0 0 Z " fill="#F19B9A" transform="translate(473,0)"/>
<path d="M0 0 C0.96585526 -0.0071553 1.93171051 -0.01431061 2.92683411 -0.02168274 C3.99535614 -0.02437164 5.06387817 -0.02706055 6.16477966 -0.02983093 C7.28348953 -0.03640213 8.4021994 -0.04297333 9.55480957 -0.04974365 C13.27693236 -0.06953947 16.99901463 -0.08115523 20.72117615 -0.09111023 C21.9900511 -0.09518576 23.25892605 -0.09926128 24.56625175 -0.10346031 C30.59226736 -0.12219364 36.6182583 -0.13675042 42.64429528 -0.14507228 C49.59296179 -0.15482679 56.54130821 -0.18109275 63.48986202 -0.22157317 C69.51211792 -0.25544782 75.53421937 -0.26722388 81.55657768 -0.27127647 C84.11499636 -0.27614728 86.67341151 -0.2877752 89.23176765 -0.30631447 C92.81776908 -0.33067823 96.40293944 -0.32974492 99.98899841 -0.32279968 C101.04335083 -0.33560974 102.09770325 -0.3484198 103.18400574 -0.36161804 C110.72827065 -0.30846634 115.63820239 1.1923348 121.73680115 5.82295227 C128.2194644 12.43179875 130.63371234 19.21335197 130.67694092 28.49583435 C130.68767387 30.08519554 130.68767387 30.08519554 130.69862366 31.70666504 C130.70131256 32.85895096 130.70400146 34.01123688 130.70677185 35.19844055 C130.71334305 36.42020493 130.71991425 37.6419693 130.72668457 38.90075684 C130.74639369 42.94383493 130.75808185 46.9868734 130.76805115 51.02998352 C130.77210178 52.42677199 130.77621879 53.82356027 130.78040123 55.22034836 C130.79943893 61.78616093 130.81367149 68.35196237 130.8220132 74.91779721 C130.83177288 82.47311723 130.85806489 90.0281433 130.89851409 97.58335984 C130.92877454 103.4383636 130.94349153 109.29328357 130.94679421 115.14836395 C130.94913387 118.63807049 130.95795108 122.12746252 130.98325539 125.6170845 C131.01108619 129.51799439 131.00667472 133.41852434 130.9997406 137.3195343 C131.01895569 139.0297451 131.01895569 139.0297451 131.03855896 140.77450562 C130.9837623 149.2695768 129.49566024 157.52579464 124.3422699 164.52217102 C117.8542076 170.57769584 111.24678837 173.27277828 102.42953968 173.27021885 C101.69838909 173.27137269 100.9672385 173.27252654 100.21393183 173.27371535 C97.74479193 173.27637866 95.27571622 173.27186217 92.80657959 173.26742554 C91.02620131 173.2678613 89.24582309 173.26873629 87.46544522 173.2700147 C82.55813682 173.27225872 77.6508501 173.26823963 72.74354446 173.26323664 C67.45724923 173.25893101 62.1709553 173.26037865 56.88465881 173.26113892 C47.72081524 173.26166408 38.55697877 173.25851807 29.39313698 173.25290108 C16.14364683 173.24478505 2.89416013 173.24217075 -10.35533223 173.24091309 C-31.85009506 173.23872273 -53.3448541 173.23206308 -74.83961487 173.22261047 C-95.72372926 173.21343594 -116.60784262 173.20635531 -137.49195862 173.20210266 C-139.421869 173.20170858 -139.421869 173.20170858 -141.39076748 173.20130653 C-147.84509028 173.20000152 -154.29941309 173.19873781 -160.7537359 173.19749463 C-214.325904 173.18712252 -267.89806509 173.16868448 -321.4702301 173.14717102 C-321.4702301 141.46717102 -321.4702301 109.78717102 -321.4702301 77.14717102 C-314.60645569 77.17971985 -307.74268127 77.21226868 -300.6709137 77.24580383 C-278.66908022 77.34164687 -256.66743664 77.3781962 -234.66540482 77.3777727 C-231.24357562 77.3777609 -227.82174669 77.37827129 -224.3999176 77.37910461 C-223.71873917 77.37926172 -223.03756073 77.37941884 -222.33574052 77.37958071 C-211.32921856 77.38336243 -200.32326233 77.42937411 -189.31693082 77.49119917 C-178.00977657 77.55376621 -166.70337997 77.56957928 -155.39601576 77.54526591 C-149.05016999 77.53308495 -142.70593022 77.54172946 -136.36031723 77.60112762 C-130.37924579 77.65644328 -124.40080774 77.65486048 -118.4196682 77.61086464 C-116.23243035 77.60458053 -114.04501899 77.61854749 -111.8580761 77.65501213 C-101.18084053 77.82190046 -92.72003293 77.87633583 -84.49064636 70.42738342 C-82.9410296 68.89956762 -81.45030106 67.33921641 -79.9832232 65.73214769 C-77.36969237 62.99427307 -74.4426634 60.62331368 -71.5327301 58.20967102 C-66.02833857 53.49563959 -60.54880387 48.75345976 -55.07594299 44.00288391 C-50.88705401 40.36897259 -46.68396274 36.75223357 -42.4702301 33.14717102 C-35.76259976 27.40735996 -29.08969248 21.62813384 -22.42286682 15.84101868 C-20.35786814 14.04970074 -18.2911968 12.26032806 -16.22413635 10.47138977 C-15.53311829 9.8731842 -14.84210022 9.27497864 -14.13014221 8.65864563 C-12.79654707 7.50424984 -11.46273335 6.35010648 -10.12867737 5.19624329 C-4.15242377 0.02102247 -4.15242377 0.02102247 0 0 Z " fill="#F1AEAC" transform="translate(325.47023010253906,286.8528289794922)"/>
<path d="M0 0 C0.96585526 -0.0071553 1.93171051 -0.01431061 2.92683411 -0.02168274 C3.99535614 -0.02437164 5.06387817 -0.02706055 6.16477966 -0.02983093 C7.28348953 -0.03640213 8.4021994 -0.04297333 9.55480957 -0.04974365 C13.27693236 -0.06953947 16.99901463 -0.08115523 20.72117615 -0.09111023 C21.9900511 -0.09518576 23.25892605 -0.09926128 24.56625175 -0.10346031 C30.59226736 -0.12219364 36.6182583 -0.13675042 42.64429528 -0.14507228 C49.59296179 -0.15482679 56.54130821 -0.18109275 63.48986202 -0.22157317 C69.51211792 -0.25544782 75.53421937 -0.26722388 81.55657768 -0.27127647 C84.11499636 -0.27614728 86.67341151 -0.2877752 89.23176765 -0.30631447 C92.81776908 -0.33067823 96.40293944 -0.32974492 99.98899841 -0.32279968 C101.04335083 -0.33560974 102.09770325 -0.3484198 103.18400574 -0.36161804 C110.72827065 -0.30846634 115.63820239 1.1923348 121.73680115 5.82295227 C142.82725081 27.32392164 130.5297699 76.17519159 130.5297699 95.14717102 C-18.6302301 95.14717102 -167.7902301 95.14717102 -321.4702301 95.14717102 C-321.4702301 89.20717102 -321.4702301 83.26717102 -321.4702301 77.14717102 C-317.21346878 77.16834991 -317.21346878 77.16834991 -312.87071228 77.18995667 C-286.80226029 77.31406824 -260.73415708 77.37827447 -234.66540482 77.3777727 C-231.24357562 77.3777609 -227.82174669 77.37827129 -224.3999176 77.37910461 C-223.71873917 77.37926172 -223.03756073 77.37941884 -222.33574052 77.37958071 C-211.32921856 77.38336243 -200.32326233 77.42937411 -189.31693082 77.49119917 C-178.00977657 77.55376621 -166.70337997 77.56957928 -155.39601576 77.54526591 C-149.05016999 77.53308495 -142.70593022 77.54172946 -136.36031723 77.60112762 C-130.37924579 77.65644328 -124.40080774 77.65486048 -118.4196682 77.61086464 C-116.23243035 77.60458053 -114.04501899 77.61854749 -111.8580761 77.65501213 C-101.18084053 77.82190046 -92.72003293 77.87633583 -84.49064636 70.42738342 C-82.9410296 68.89956762 -81.45030106 67.33921641 -79.9832232 65.73214769 C-77.36969237 62.99427307 -74.4426634 60.62331368 -71.5327301 58.20967102 C-66.02833857 53.49563959 -60.54880387 48.75345976 -55.07594299 44.00288391 C-50.88705401 40.36897259 -46.68396274 36.75223357 -42.4702301 33.14717102 C-35.76259976 27.40735996 -29.08969248 21.62813384 -22.42286682 15.84101868 C-20.35786814 14.04970074 -18.2911968 12.26032806 -16.22413635 10.47138977 C-15.53311829 9.8731842 -14.84210022 9.27497864 -14.13014221 8.65864563 C-12.79654707 7.50424984 -11.46273335 6.35010648 -10.12867737 5.19624329 C-4.15242377 0.02102247 -4.15242377 0.02102247 0 0 Z " fill="#F1ADAB" transform="translate(325.47023010253906,286.8528289794922)"/>
<path d="M0 0 C141.57 0 283.14 0 429 0 C429 0.33 429 0.66 429 1 C428.4338435 0.99501401 427.867687 0.99002802 427.28437424 0.98489094 C413.46037518 0.86696447 399.63730427 0.81124122 385.8127861 0.82121754 C379.12690475 0.8249212 372.44245089 0.80700388 365.75683594 0.74291992 C359.29827918 0.68176779 352.84166799 0.67465055 346.38291168 0.70416832 C343.9254478 0.70606416 341.4678888 0.68885957 339.01070404 0.65177345 C324.21095242 -0.10227738 324.21095242 -0.10227738 311.24284744 5.80269146 C308.97986673 8.05553106 307.00435497 10.51734225 305 13 C303.181901 14.56377238 301.33157781 16.09167122 299.4375 17.5625 C295.67161811 20.59357567 292.05670244 23.72581577 288.5 27 C284.05272888 31.09351091 279.45282537 34.92442499 274.75 38.71875 C271.91900422 41.06718968 269.20616402 43.50909902 266.5 46 C262.05406536 50.09228075 257.4559628 53.92243114 252.75390625 57.71484375 C249.04311242 60.7940131 245.5158487 64.05316562 241.99609375 67.34765625 C241.52981001 67.74767601 241.06352627 68.14769577 240.58311272 68.55983734 C238.91108998 70.02213621 238.91108998 70.02213621 237.29886055 71.97708893 C230.8874263 78.481887 224.89129134 78.8880142 216.22924638 78.99880028 C213.09985103 78.99522026 209.97233342 78.95201078 206.84326172 78.90820312 C204.58565858 78.90594457 202.32804956 78.90721703 200.07044983 78.91174316 C193.96121395 78.91403317 187.85324141 78.8670868 181.74429846 78.8111515 C175.35288284 78.76105126 168.96143642 78.75643456 162.56985474 78.74694824 C151.84838947 78.72492948 141.12747489 78.67500266 130.40625 78.60351562 C119.36753636 78.52998855 108.32894842 78.47340802 97.29003906 78.43945312 C96.60864431 78.43735134 95.92724956 78.43524955 95.22520648 78.43308407 C91.80656129 78.42264313 88.38791522 78.41253362 84.96926856 78.40258884 C56.64579263 78.31976824 28.32308126 78.17235006 0 78 C0 52.26 0 26.52 0 0 Z " fill="#F1B9B7" transform="translate(4,286)"/>
<path d="M0 0 C124.74 0 249.48 0 378 0 C371.48062121 6.51937879 364.73312601 12.64150043 357.5625 18.4375 C353.75912497 21.51336588 350.09917348 24.68753166 346.5 28 C342.13321476 32.01893321 337.64062934 35.81057155 332.99609375 39.50390625 C330.06201825 41.8387591 330.06201825 41.8387591 327.9892832 44.17445987 C322.34964337 49.98699013 318.42926708 52.0338746 310.33379018 52.16173178 C309.11781514 52.13551621 307.9018401 52.10930063 306.64901733 52.08229065 C304.67609583 52.09382538 304.67609583 52.09382538 302.66331732 52.10559314 C299.03649863 52.12560121 295.41209788 52.08989128 291.78558707 52.04459059 C287.86616714 52.00556085 283.94687295 52.01888815 280.02731323 52.02571106 C273.24455069 52.0304201 266.46257 52.00229128 259.68000412 51.95157051 C249.87381128 51.87828663 240.06799476 51.85497339 230.26155777 51.84367859 C214.34977627 51.8240027 198.43841106 51.76416799 182.52685547 51.67895508 C167.07440263 51.59628713 151.62206305 51.53260928 136.16943359 51.49438477 C135.21622224 51.49202025 134.26301089 51.48965574 133.28091435 51.48721958 C128.49871861 51.47547386 123.71652206 51.46410058 118.93432498 51.45291245 C79.28924428 51.35967981 39.64468188 51.19873665 0 51 C0 34.17 0 17.34 0 0 Z " fill="#EFDAC1" transform="translate(4,235)"/>
<path d="M0 0 C68.31 0 136.62 0 207 0 C203.49170402 4.20995518 201.00970176 7.01629296 196.875 10.25 C192.95566191 13.38126742 189.18710446 16.59814431 185.5 20 C181.05272888 24.09351091 176.45282537 27.92442499 171.75 31.71875 C168.91900422 34.06718968 166.20616402 36.50909902 163.5 39 C159.05272888 43.09351091 154.45282537 46.92442499 149.75 50.71875 C146.91900422 53.06718968 144.20616402 55.50909902 141.5 58 C137.03311732 62.10953207 132.43368185 65.99501643 127.703125 69.796875 C125.12973598 71.78807583 125.12973598 71.78807583 123.61352444 73.50370216 C120.18206352 77.01372779 117.61347565 78.41025586 112.67848206 78.7215271 C110.57677975 78.73881881 108.47464394 78.72319353 106.37329102 78.68115234 C105.2213475 78.6820285 104.06940399 78.68290466 102.8825531 78.68380737 C99.08897223 78.67963954 95.29717684 78.63302005 91.50390625 78.5859375 C88.86833156 78.57474264 86.23274436 78.56620383 83.59715271 78.56021118 C77.37803635 78.54160394 71.15955704 78.49242427 64.9407205 78.43211424 C57.16177475 78.358321 49.38272432 78.32559449 41.60351562 78.29296875 C27.73518153 78.23462494 13.86823642 78.1144209 0 78 C0 52.26 0 26.52 0 0 Z " fill="#F2B9B7" transform="translate(4,382)"/>
<path d="M0 0 C0 5.94 0 11.88 0 18 C-2.5575 18.391875 -5.115 18.78375 -7.75 19.1875 C-23.39084843 21.84140555 -36.66797288 28.73536349 -47 41 C-48.25376832 42.98829925 -49.12371868 44.8092967 -50 47 C-48.824375 47.2784375 -48.824375 47.2784375 -47.625 47.5625 C-34.45666513 52.7844259 -26.15021446 63.17112652 -20.41015625 75.73046875 C-15.79396029 86.43339401 -14.72641868 100.93447693 -19 112 C-25.4816459 126.51004822 -35.89923799 139.10126484 -51 145 C-65.66277339 149.85287812 -79.12960513 148.81789278 -93.125 142.375 C-99.28668206 139.11672833 -104.17809446 135.0033751 -109 130 C-109.57492187 129.40832031 -110.14984375 128.81664062 -110.7421875 128.20703125 C-120.84528485 116.35028747 -122.3494063 101.30758782 -121.25976562 86.3828125 C-120.303468 77.61075906 -116.11202839 70.97445079 -111 64 C-110.54882812 63.31035156 -110.09765625 62.62070312 -109.6328125 61.91015625 C-102.66337649 51.65287896 -91.11665903 45.70175594 -79.15234375 43.3046875 C-76.05712313 42.8665256 -73.121195 42.86718319 -70 43 C-69.72414063 42.26265625 -69.44828125 41.5253125 -69.1640625 40.765625 C-62.1238105 24.03912025 -46.17313215 11.65946833 -29.88574219 4.73144531 C-20.10335139 0.93703272 -10.49782164 -0.52489108 0 0 Z " fill="#EF614A" transform="translate(473,0)"/>
<path d="M0 0 C148.5 0 297 0 450 0 C450 5.61 450 11.22 450 17 C301.5 17 153 17 0 17 C0 11.39 0 5.78 0 0 Z " fill="#F28685" transform="translate(5,365)"/>
<path d="M0 0 C38.61 0 77.22 0 117 0 C113.92970779 3.83786526 111.67869969 6.25074089 107.9375 9.1875 C103.99946002 12.34106986 100.20823373 15.57906128 96.5 19 C92.05272888 23.09351091 87.45282537 26.92442499 82.75 30.71875 C79.07552034 33.7668979 75.58028593 36.98986251 72.09375 40.25 C71.40313225 40.85739769 71.40313225 40.85739769 70.69856262 41.47706604 C69.35518288 42.68154246 68.05647376 43.93582472 66.7754364 45.20640564 C59.38051534 52.03962361 54.13367733 53.25819064 44.23828125 52.87890625 C42.96647507 52.86617172 41.69466888 52.85343719 40.38432312 52.84031677 C37.03978842 52.7987652 33.70103773 52.71830243 30.35809326 52.61798096 C26.93259946 52.52507408 23.50648427 52.48413574 20.08007812 52.43945312 C13.38351965 52.34838479 6.6969167 52.17226112 0 52 C0 34.84 0 17.68 0 0 Z " fill="#EFDAC1" transform="translate(4,460)"/>
<path d="M0 0 C10.2977966 3.53643193 17.07785015 12.69242408 22 22 C27.35784217 33.48342393 29.29378446 47.29379821 25.875 59.734375 C20.13489882 74.59713699 9.84695795 87.30727939 -4.75 94.12109375 C-18.74323573 99.58720146 -32.16832146 99.29959759 -46.0703125 93.78125 C-56.05478605 89.18481716 -64.23857875 82.41032137 -70 73 C-70 72.34 -70 71.68 -70 71 C-69.15179688 70.91363281 -68.30359375 70.82726562 -67.4296875 70.73828125 C-45.67848659 68.13291762 -28.90410075 58.71710512 -14.6875 42.25 C-5.35739099 30.00423193 -0.97639979 15.21836908 0 0 Z " fill="#EA5242" transform="translate(429,50)"/>
<path d="M0 0 C0 5.94 0 11.88 0 18 C-2.5575 18.391875 -5.115 18.78375 -7.75 19.1875 C-23.54413483 21.86741486 -36.42875893 28.82396811 -47 41 C-48.03013277 42.64821244 -49.04710343 44.30596166 -50 46 C-50.66 46 -51.32 46 -52 46 C-52.29003906 46.73734375 -52.58007812 47.4746875 -52.87890625 48.234375 C-53.53931835 49.86354493 -54.22455704 51.48366133 -54.96484375 53.078125 C-58.56913766 61.12626722 -59.62455924 69.33472322 -61 78 C-66.61 78 -72.22 78 -78 78 C-78.83688573 59.58851404 -72.6348379 42.14924294 -61 28 C-60.45730469 27.29488281 -59.91460937 26.58976562 -59.35546875 25.86328125 C-45.14857796 8.26885932 -22.27046835 -1.11352342 0 0 Z " fill="#965735" transform="translate(473,0)"/>
<path d="M0 0 C2.65311422 1.34620716 4.51241896 3.14666201 6.62548828 5.23242188 C7.43630859 6.01230469 8.24712891 6.7921875 9.08251953 7.59570312 C10.81298828 9.91992188 10.81298828 9.91992188 10.73291016 11.72412109 C9.41430752 14.87155 7.20025027 17.00042413 4.82470703 19.37695312 C4.07529594 20.1377845 4.07529594 20.1377845 3.31074524 20.91398621 C2.25458074 21.98093493 1.19443599 23.0439564 0.13061523 24.10327148 C-1.49751505 25.73042641 -3.10313841 27.37775457 -4.70849609 29.02734375 C-5.73779228 30.06184472 -6.76834974 31.09509263 -7.80029297 32.12695312 C-8.2796077 32.62266312 -8.75892242 33.11837311 -9.25276184 33.62910461 C-10.63745117 34.9855957 -10.63745117 34.9855957 -13.18701172 36.91992188 C-17.17875737 36.77376285 -19.24237511 34.32892506 -21.99951172 31.60742188 C-22.81033203 30.82753906 -23.62115234 30.04765625 -24.45654297 29.24414062 C-26.18701172 26.91992188 -26.18701172 26.91992188 -26.10693359 25.11572266 C-24.78833096 21.96829375 -22.57427371 19.83941962 -20.19873047 17.46289062 C-19.69912308 16.95566971 -19.19951569 16.44844879 -18.68476868 15.92585754 C-17.62860417 14.85890882 -16.56845943 13.79588735 -15.50463867 12.73657227 C-13.87650838 11.10941734 -12.27088503 9.46208918 -10.66552734 7.8125 C-9.63623115 6.77799903 -8.6056737 5.74475112 -7.57373047 4.71289062 C-7.09441574 4.21718063 -6.61510101 3.72147064 -6.1212616 3.21073914 C-2.74131802 -0.10037423 -2.74131802 -0.10037423 0 0 Z " fill="#995938" transform="translate(450.18701171875,168.080078125)"/>
<path d="M0 0 C3.84281736 1.92140868 5.80431927 3.5926816 8.75 6.625 C9.54921875 7.44226563 10.3484375 8.25953125 11.171875 9.1015625 C11.77515625 9.72804687 12.3784375 10.35453125 13 11 C11.41588094 14.8826895 8.77134362 17.51864365 5.84375 20.421875 C5.34081421 20.92672424 4.83787842 21.43157349 4.31970215 21.95172119 C3.25970014 23.01307997 2.19718512 24.07193419 1.13232422 25.12841797 C-0.50140046 26.75139124 -2.12413294 28.38481068 -3.74609375 30.01953125 C-4.77800476 31.05012146 -5.81053559 32.08009152 -6.84375 33.109375 C-7.33025024 33.59992371 -7.81675049 34.09047241 -8.31799316 34.59588623 C-11.77005651 38 -11.77005651 38 -14 38 C-15.5859375 36.42578125 -15.5859375 36.42578125 -17.375 34.3125 C-17.96023438 33.62800781 -18.54546875 32.94351563 -19.1484375 32.23828125 C-21.12602399 29.84765455 -23.06183951 27.42270061 -25 25 C-16.75 16.75 -8.5 8.5 0 0 Z " fill="#985837" transform="translate(301,133)"/>
<path d="M0 0 C3.84281736 1.92140868 5.80431927 3.5926816 8.75 6.625 C9.54921875 7.44226563 10.3484375 8.25953125 11.171875 9.1015625 C11.77515625 9.72804687 12.3784375 10.35453125 13 11 C11.41588094 14.8826895 8.77134362 17.51864365 5.84375 20.421875 C5.34081421 20.92672424 4.83787842 21.43157349 4.31970215 21.95172119 C3.25970014 23.01307997 2.19718512 24.07193419 1.13232422 25.12841797 C-0.50140046 26.75139124 -2.12413294 28.38481068 -3.74609375 30.01953125 C-4.77800476 31.05012146 -5.81053559 32.08009152 -6.84375 33.109375 C-7.33025024 33.59992371 -7.81675049 34.09047241 -8.31799316 34.59588623 C-11.77005651 38 -11.77005651 38 -14 38 C-15.5859375 36.42578125 -15.5859375 36.42578125 -17.375 34.3125 C-17.96023437 33.62800781 -18.54546875 32.94351563 -19.1484375 32.23828125 C-21.12602399 29.84765455 -23.06183951 27.42270061 -25 25 C-16.75 16.75 -8.5 8.5 0 0 Z " fill="#985938" transform="translate(223,133)"/>
<path d="M0 0 C3.90851199 1.58431453 6.52367356 4.26635095 9.421875 7.2265625 C9.92672424 7.73424164 10.43157349 8.24192078 10.95172119 8.76498413 C12.55592096 10.38033842 14.15300856 12.00252209 15.75 13.625 C16.83938107 14.72441698 17.9292199 15.82338059 19.01953125 16.921875 C21.68501885 19.6093602 24.34415143 22.30299021 27 25 C26.15356901 26.04796218 25.29723808 27.08792692 24.4375 28.125 C23.72400391 28.99511719 23.72400391 28.99511719 22.99609375 29.8828125 C20.22540048 32.82159088 17.06660344 35.37148276 14 38 C5.75 29.75 -2.5 21.5 -11 13 C-9.07859132 9.15718264 -7.4073184 7.19568073 -4.375 4.25 C-3.55773437 3.45078125 -2.74046875 2.6515625 -1.8984375 1.828125 C-0.95871094 0.92320312 -0.95871094 0.92320312 0 0 Z " fill="#985837" transform="translate(244,168)"/>
<path d="M0 0 C3.63303084 1.69586126 5.94549046 3.73800488 8.75 6.625 C9.54921875 7.44226563 10.3484375 8.25953125 11.171875 9.1015625 C11.77515625 9.72804687 12.3784375 10.35453125 13 11 C10.66988322 16.6012737 5.87943183 20.53065204 1.66943359 24.75610352 C0.12468888 26.31281353 -1.40042234 27.88721009 -2.92578125 29.46289062 C-3.90509733 30.45166381 -4.88552883 31.43933375 -5.8671875 32.42578125 C-6.75519043 33.32723877 -7.64319336 34.22869629 -8.55810547 35.1574707 C-11 37 -11 37 -13.15966797 36.92871094 C-16.06453698 35.46278871 -18.00599859 33.27008041 -20.25 30.9375 C-21.14203125 30.01839844 -22.0340625 29.09929687 -22.953125 28.15234375 C-23.62859375 27.44207031 -24.3040625 26.73179687 -25 26 C-20.03805145 20.00499003 -14.6523376 14.53572963 -9.125 9.0625 C-8.24585938 8.18787109 -7.36671875 7.31324219 -6.4609375 6.41210938 C-4.3095654 4.27242952 -2.15588208 2.13513403 0 0 Z " fill="#985837" transform="translate(162,168)"/>
<path d="M0 0 C3.63303084 1.69586126 5.94549046 3.73800488 8.75 6.625 C9.54921875 7.44226563 10.3484375 8.25953125 11.171875 9.1015625 C11.77515625 9.72804687 12.3784375 10.35453125 13 11 C8.03805145 16.99500997 2.6523376 22.46427037 -2.875 27.9375 C-3.75414062 28.81212891 -4.63328125 29.68675781 -5.5390625 30.58789062 C-7.6904346 32.72757048 -9.84411792 34.86486597 -12 37 C-15.63303084 35.30413874 -17.94549046 33.26199512 -20.75 30.375 C-21.54921875 29.55773437 -22.3484375 28.74046875 -23.171875 27.8984375 C-23.77515625 27.27195313 -24.3784375 26.64546875 -25 26 C-20.03805145 20.00499003 -14.6523376 14.53572963 -9.125 9.0625 C-8.24585938 8.18787109 -7.36671875 7.31324219 -6.4609375 6.41210938 C-4.3095654 4.27242952 -2.15588208 2.13513403 0 0 Z " fill="#965735" transform="translate(353,168)"/>
<path d="M0 0 C5.99500997 4.96194855 11.46427037 10.3476624 16.9375 15.875 C17.81212891 16.75414063 18.68675781 17.63328125 19.58789062 18.5390625 C21.72757048 20.6904346 23.86486597 22.84411792 26 25 C24.30413874 28.63303084 22.26199512 30.94549046 19.375 33.75 C18.14910156 34.94882813 18.14910156 34.94882813 16.8984375 36.171875 C16.27195312 36.77515625 15.64546875 37.3784375 15 38 C9.00499003 33.03805145 3.53572963 27.6523376 -1.9375 22.125 C-2.81212891 21.24585937 -3.68675781 20.36671875 -4.58789062 19.4609375 C-6.72757048 17.3095654 -8.86486597 15.15588208 -11 13 C-9.30413874 9.36696916 -7.26199512 7.05450954 -4.375 4.25 C-3.55773437 3.45078125 -2.74046875 2.6515625 -1.8984375 1.828125 C-0.95871094 0.92320313 -0.95871094 0.92320313 0 0 Z " fill="#965735" transform="translate(305,81)"/>
</svg>
