<?xml version="1.0" encoding="UTF-8"?>
<svg version="1.1" xmlns="http://www.w3.org/2000/svg" width="512" height="512">
<path d="M0 0 C5.94 0 11.88 0 18 0 C18.03867187 2.15595703 18.03867187 2.15595703 18.078125 4.35546875 C18.46713579 19.36763025 19.13095845 33.43878196 30 45 C30.55800293 45.60658447 31.11600586 46.21316895 31.69091797 46.83813477 C36.96520453 51.79596413 41.21319749 52.66776806 48.38352966 52.49388123 C49.78385778 52.43789857 51.18383527 52.37245043 52.58331299 52.29818726 C56.26463878 52.11012324 59.94741811 52.05316523 63.6328125 52 C64.35830292 51.98837326 65.08379333 51.97674652 65.83126831 51.96476746 C75.17106362 51.88010651 84.01749614 53.53457212 93 56 C93.67579102 56.18191895 94.35158203 56.36383789 95.04785156 56.55126953 C114.55650208 61.98977973 131.59884207 72.00449798 147 85 C147.81082031 85.67546875 148.62164062 86.3509375 149.45703125 87.046875 C167.64043859 102.73901236 180.34946772 123.52829231 188.4375 146 C188.68459717 146.68167236 188.93169434 147.36334473 189.1862793 148.06567383 C190.77814239 152.70733095 191.52574106 157.11567808 192 162 C190.68911318 162.31919939 189.37614752 162.62985947 188.0625 162.9375 C187.33160156 163.11152344 186.60070312 163.28554687 185.84765625 163.46484375 C176.87256625 165.15152047 168.04259512 165.12083723 158.9375 165.0625 C157.58138187 165.05747314 156.22526192 165.05291234 154.86914062 165.04882812 C151.57938006 165.03712079 148.28971406 165.02072211 145 165 C145.59518433 165.57161865 145.59518433 165.57161865 146.20239258 166.15478516 C155.26151103 174.9041343 163.61838615 183.7865723 171 194 C171.41024414 194.56058105 171.82048828 195.12116211 172.24316406 195.69873047 C202.11152188 236.95395629 215.08497382 290.22227786 207.75 340.66796875 C202.53542815 372.15314343 191.59337391 401.91438833 173 428 C172.58395508 428.58426758 172.16791016 429.16853516 171.73925781 429.77050781 C165.4764261 438.44708751 158.39333095 446.28510336 151 454 C149.93458984 455.12728516 149.93458984 455.12728516 148.84765625 456.27734375 C135.3399015 470.22707003 119.05190849 480.93535948 102 490 C100.85917969 490.61746094 99.71835937 491.23492187 98.54296875 491.87109375 C85.05308245 498.92226831 71.02196674 503.71787292 56.25 507.3125 C54.76149536 507.67613647 54.76149536 507.67613647 53.24291992 508.04711914 C38.69294698 511.42481274 24.49598298 512.41144849 9.625 512.375 C8.7477124 512.37412384 7.8704248 512.37324768 6.96655273 512.37234497 C-48.44363465 512.1904886 -97.86279367 489.64255216 -136.71728516 450.58764648 C-142.31446709 444.79252698 -147.22308794 438.47732418 -152 432 C-153.17369141 430.40865234 -153.17369141 430.40865234 -154.37109375 428.78515625 C-185.04473947 385.77825957 -197.39861535 331.70154673 -189.03515625 279.51171875 C-179.65224346 227.21153055 -150.83023601 179.1857935 -107.00830078 148.61035156 C-80.80738773 130.67266056 -52.24804666 119.476067 -21 114 C-20.2575 113.86722656 -19.515 113.73445313 -18.75 113.59765625 C-12.46172886 112.64131501 -6.4712162 113 0 113 C0 75.71 0 38.42 0 0 Z M18 60 C18 77.49 18 94.98 18 113 C24.93 113.66 31.86 114.32 39 115 C45.02072086 115.94871965 51.00934217 116.90280992 57 118 C56.21625 117.01 55.4325 116.02 54.625 115 C45.18030019 102.36241113 37.04676756 88.47463719 31.6875 73.625 C29.12644641 67.19218526 24.77457751 63.6358451 19 60 C18.67 60 18.34 60 18 60 Z " fill="#F88500" transform="translate(247,0)"/>
<path d="M0 0 C22.05599193 10.0990719 39.35662485 48.45733558 47.43041992 69.43701172 C66.04566733 120.27807288 64.64846394 176.39693274 42.14282227 225.79370117 C36.95965234 236.79510426 31.05748384 247.09868872 24 257 C23.58395508 257.58426758 23.16791016 258.16853516 22.73925781 258.77050781 C16.4764261 267.44708751 9.39333095 275.28510336 2 283 C0.93458984 284.12728516 0.93458984 284.12728516 -0.15234375 285.27734375 C-13.6600985 299.22707003 -29.94809151 309.93535948 -47 319 C-48.14082031 319.61746094 -49.28164063 320.23492187 -50.45703125 320.87109375 C-63.94691755 327.92226831 -77.97803326 332.71787292 -92.75 336.3125 C-94.23850464 336.67613647 -94.23850464 336.67613647 -95.75708008 337.04711914 C-110.30705302 340.42481274 -124.50401702 341.41144849 -139.375 341.375 C-140.2522876 341.37412384 -141.1295752 341.37324768 -142.03344727 341.37234497 C-181.37842162 341.24321467 -222.55566827 330.61410258 -254 306 C-251.62043397 303.62043397 -249.79265569 303.07251305 -246.62109375 301.9609375 C-198.0117981 284.47846497 -153.42940397 258.69101672 -115.52050781 223.40283203 C-114.01359428 222.01254219 -112.49074754 220.64236717 -110.9609375 219.27734375 C-103.84041176 212.90308401 -97.30402916 206.18009708 -91 199 C-89.69289063 197.52466797 -89.69289063 197.52466797 -88.359375 196.01953125 C-75.36613197 181.14148065 -64.16053263 164.91394055 -54 148 C-53.26185059 146.77506836 -53.26185059 146.77506836 -52.50878906 145.52539062 C-25.73699152 100.76057626 -9.4825288 51.12319873 0 0 Z " fill="#F27900" transform="translate(396,171)"/>
<path d="M0 0 C5.94 0 11.88 0 18 0 C18.02578125 1.43730469 18.0515625 2.87460938 18.078125 4.35546875 C18.46713579 19.36763025 19.13095845 33.43878196 30 45 C30.83700439 45.90987671 30.83700439 45.90987671 31.69091797 46.83813477 C36.96520453 51.79596413 41.21319749 52.66776806 48.38352966 52.49388123 C49.78385778 52.43789857 51.18383527 52.37245043 52.58331299 52.29818726 C56.26463878 52.11012324 59.94741811 52.05316523 63.6328125 52 C64.35830292 51.98837326 65.08379333 51.97674652 65.83126831 51.96476746 C75.17106362 51.88010651 84.01749614 53.53457212 93 56 C93.67579102 56.18191895 94.35158203 56.36383789 95.04785156 56.55126953 C114.55650208 61.98977973 131.59884207 72.00449798 147 85 C147.81082031 85.67546875 148.62164062 86.3509375 149.45703125 87.046875 C167.64043859 102.73901236 180.34946772 123.52829231 188.4375 146 C188.80814575 147.02250854 188.80814575 147.02250854 189.1862793 148.06567383 C190.77814239 152.70733095 191.52574106 157.11567808 192 162 C190.68911318 162.31919939 189.37614752 162.62985947 188.0625 162.9375 C187.33160156 163.11152344 186.60070312 163.28554687 185.84765625 163.46484375 C168.35317637 166.75255808 149.25225852 166.36746008 132 162 C130.83573486 161.70996094 130.83573486 161.70996094 129.64794922 161.4140625 C104.26927845 154.89716983 83.22798002 142.58708019 64 125 C62.64068359 123.76636719 62.64068359 123.76636719 61.25390625 122.5078125 C49.93044152 111.73197243 39.54631588 97.17880823 34.30078125 82.3984375 C34.01807373 81.60663086 33.73536621 80.81482422 33.4440918 79.99902344 C32.91784203 78.47376183 32.4205191 76.93804031 31.96020508 75.39160156 C29.32617098 67.61835217 26.44730637 66.9578451 19 61 C18.67 89.05 18.34 117.1 18 146 C14.77717587 147.07427471 12.38488847 147.1332963 9 147.125 C7.948125 147.12757813 6.89625 147.13015625 5.8125 147.1328125 C3 147 3 147 0 146 C0 97.82 0 49.64 0 0 Z " fill="#5F9339" transform="translate(247,0)"/>
<path d="M0 0 C0.64324219 0.11069824 1.28648437 0.22139648 1.94921875 0.33544922 C25.665277 4.39948844 48.89708653 7.4277135 73 7 C73.69963867 6.99274902 74.39927734 6.98549805 75.12011719 6.97802734 C85.68219175 6.82801232 95.6088642 5.04609349 105.89135742 2.63989258 C106.87080322 2.4158374 107.85024902 2.19178223 108.859375 1.9609375 C109.73045898 1.75259277 110.60154297 1.54424805 111.49902344 1.32958984 C114.29435141 0.96120906 116.30087242 1.21207024 119 2 C131.32591348 14.21511876 139.93320991 38.18060479 142 55 C140.68911318 55.31919939 139.37614752 55.62985947 138.0625 55.9375 C137.33160156 56.11152344 136.60070312 56.28554687 135.84765625 56.46484375 C118.35317637 59.75255808 99.25225852 59.36746008 82 55 C81.22382324 54.80664062 80.44764648 54.61328125 79.64794922 54.4140625 C49.37595457 46.64063174 18.56939481 28.83750635 0 3 C0 2.01 0 1.02 0 0 Z " fill="#568740" transform="translate(297,107)"/>
<path d="M0 0 C4.06498881 1.37184347 6.67396561 3.22068459 9.8125 6.125 C10.60269531 6.84945312 11.39289063 7.57390625 12.20703125 8.3203125 C12.79871094 8.87460938 13.39039063 9.42890625 14 10 C11.82297675 14.00572278 9.51600407 17.70326424 6.8125 21.375 C-6.97289127 40.94612293 -13.48846677 62.75486212 -18 86 C-18.33243993 87.6668451 -18.66552705 89.33356166 -19 91 C-21.64624284 90.85978195 -24.29184578 90.71310224 -26.9375 90.5625 C-27.69224609 90.52318359 -28.44699219 90.48386719 -29.22460938 90.44335938 C-34.88671875 90.11328125 -34.88671875 90.11328125 -36 89 C-37.19784455 57.64772094 -19.37740065 25.2479592 -1 1 C-0.67 0.67 -0.34 0.34 0 0 Z " fill="#FE9318" transform="translate(120,205)"/>
<path d="M0 0 C4.3454606 0.65840312 7.98654496 2.24867416 12 4 C20.38424763 6.57841925 28.60068843 5.30830758 36.52734375 1.97265625 C39 1 39 1 44 0 C48.455 6.435 48.455 6.435 53 13 C49.90006157 16.09993843 47.07745521 17.48978464 43.125 19.125 C42.51269531 19.38925781 41.90039062 19.65351563 41.26953125 19.92578125 C29.349095 24.95431646 14.952569 24.50438357 2.859375 20.22265625 C-1.28508231 18.45050442 -5.18816081 16.40333014 -9 14 C-7.87540329 12.22891052 -6.75030797 10.45813764 -5.625 8.6875 C-4.99851563 7.70136719 -4.37203125 6.71523437 -3.7265625 5.69921875 C-2.50348387 3.78712071 -1.2590644 1.8885966 0 0 Z " fill="#E66000" transform="translate(234,141)"/>
<path d="M0 0 C5.94 0 11.88 0 18 0 C18 5.94 18 11.88 18 18 C12.06 18 6.12 18 0 18 C0 12.06 0 6.12 0 0 Z " fill="#E66100" transform="translate(360,399)"/>
<path d="M0 0 C3.88014936 1.52059907 5.73906562 3.86078531 8.25 7.125 C8.95640625 8.03507813 9.6628125 8.94515625 10.390625 9.8828125 C11.18726563 10.93082031 11.18726563 10.93082031 12 12 C10.49650623 15.66786393 8.36271208 17.68910393 5.375 20.25 C4.14910156 21.30960938 4.14910156 21.30960938 2.8984375 22.390625 C1.95871094 23.18726563 1.95871094 23.18726563 1 24 C-2.68069887 22.46356148 -4.98775204 20.21849055 -7.75 17.375 C-8.54921875 16.55773437 -9.3484375 15.74046875 -10.171875 14.8984375 C-10.77515625 14.27195313 -11.3784375 13.64546875 -12 13 C-10.44997253 9.11602311 -7.99523379 6.97020381 -4.875 4.25 C-3.96492187 3.45078125 -3.05484375 2.6515625 -2.1171875 1.828125 C-1.06917969 0.92320312 -1.06917969 0.92320312 0 0 Z " fill="#FE9318" transform="translate(145,179)"/>
<path d="M0 0 C5.61 0 11.22 0 17 0 C17 5.94 17 11.88 17 18 C11.39 18 5.78 18 0 18 C0 12.06 0 6.12 0 0 Z " fill="#E66000" transform="translate(308,390)"/>
<path d="M0 0 C5.61 0 11.22 0 17 0 C17 5.61 17 11.22 17 17 C11.39 17 5.78 17 0 17 C0 11.39 0 5.78 0 0 Z " fill="#E66000" transform="translate(282,443)"/>
<path d="M0 0 C5.61 0 11.22 0 17 0 C17 5.61 17 11.22 17 17 C11.39 17 5.78 17 0 17 C0 11.39 0 5.78 0 0 Z " fill="#E66000" transform="translate(395,269)"/>
<path d="M0 0 C5.61 0 11.22 0 17 0 C17 5.61 17 11.22 17 17 C11.39 17 5.78 17 0 17 C0 11.39 0 5.78 0 0 Z " fill="#E66000" transform="translate(360,217)"/>
</svg>
